# xmcd
#
# Track frame offsets:
#	150
#	13229
#	27639
#
# Disc length: 594 seconds
#
# Revision: 0
# Processed by: cddbd v1.5.2PL0 Copyright (c) Steve Scherf et al.
# Submitted via: audiograbber 1.83.01
#
DISCID=21025003
DTITLE=David Arr - David Arr (Single
DYEAR=1900
DGENRE=Country
TTITLE0=Giddy Up Go
TTITLE1=A Penny For Your Thoughts
TTITLE2=Hard Times On Easy Street
EXTD=
EXTT0=
EXTT1=
EXTT2=
PLAYORDER=
